<?xml version="1.0" encoding="iso-8859-1"?>
<!-- Generator: Adobe Illustrator 19.0.0, SVG Export Plug-In . SVG Version: 6.00 Build 0)  -->
<svg version="1.1" id="Capa_1" xmlns="http://www.w3.org/2000/svg" xmlns:xlink="http://www.w3.org/1999/xlink" x="0px" y="0px"
	 viewBox="0 0 500.808 500.808" style="enable-background:new 0 0 500.808 500.808;" xml:space="preserve">
<g>
	<g>
		<path d="M498.404,128c0-70.576-57.424-128-128-128c-20.096,0-39.056,4.784-56,13.08V0h-312v496h227.312l84.688-84.688V286.528
			c2.512,0.896,5.184,1.472,8,1.472h8v162.808l40,50l40-50V288h8c13.232,0,24-10.768,24-24c0-9.768-5.888-18.168-14.288-21.904
			C469.748,220.944,498.404,177.8,498.404,128z M234.404,468.688V416h52.688L234.404,468.688z M298.404,264v136h-80v80h-200V16h280
			v6.256c-33.776,23.064-56,61.848-56,105.744c0,49.8,28.656,92.944,70.288,114.096C304.292,245.832,298.404,254.232,298.404,264z
			 M370.404,475.192L355.044,456h30.712L370.404,475.192z M394.404,440h-16V320h-16v120h-16V288h16v16h16v-16h16V440z M418.404,272
			h-96c-4.408,0-8-3.584-8-8c0-4.416,3.592-8,8-8h96c4.408,0,8,3.584,8,8C426.404,268.416,422.812,272,418.404,272z M370.404,240
			c-61.76,0-112-50.24-112-112s50.24-112,112-112s112,50.24,112,112S432.164,240,370.404,240z"/>
	</g>
</g>
<g>
	<g>
		<path d="M448.948,183.216C460.364,167,466.404,147.904,466.404,128c0-52.936-43.064-96-96-96c-52.936,0-96,43.064-96,96
			c0,52.936,43.064,96,96,96c24.608,0,48.008-9.296,65.888-26.176l-10.984-11.64C410.412,200.248,390.908,208,370.404,208
			c-44.112,0-80-35.888-80-80s35.888-80,80-80s80,35.888,80,80c0,16.592-5.024,32.496-14.536,46L448.948,183.216z"/>
	</g>
</g>
<g>
	<g>
		<path d="M370.404,64v16c26.472,0,48,21.528,48,48h16C434.404,92.712,405.692,64,370.404,64z"/>
	</g>
</g>
<g>
	<g>
		<path d="M34.404,32v96h96V32H34.404z M114.404,112h-64V48h64V112z"/>
	</g>
</g>
<g>
	<g>
		<rect x="146.404" y="32" width="64" height="16"/>
	</g>
</g>
<g>
	<g>
		<rect x="146.404" y="64" width="64" height="16"/>
	</g>
</g>
<g>
	<g>
		<rect x="146.404" y="96" width="64" height="16"/>
	</g>
</g>
<g>
	<g>
		<rect x="34.404" y="144" width="80" height="16"/>
	</g>
</g>
<g>
	<g>
		<rect x="34.404" y="176" width="152" height="16"/>
	</g>
</g>
<g>
	<g>
		<rect x="34.404" y="208" width="224" height="16"/>
	</g>
</g>
<g>
	<g>
		<rect x="34.404" y="240" width="224" height="16"/>
	</g>
</g>
<g>
	<g>
		<rect x="98.404" y="272" width="160" height="16"/>
	</g>
</g>
<g>
	<g>
		<rect x="130.404" y="144" width="56" height="16"/>
	</g>
</g>
<g>
	<g>
		<path d="M258.404,312c-13.232,0-24,10.768-24,24c0,2.368,0.448,4.608,1.088,6.768l-51.52,37.472
			c-3.856-2.664-8.528-4.24-13.568-4.24c-4.64,0-8.936,1.384-12.608,3.664l-44.808-35.856c0.856-2.456,1.416-5.056,1.416-7.808
			c0-13.232-10.768-24-24-24s-24,10.768-24,24c0,7.872,3.856,14.808,9.728,19.184l-18.744,60.92
			C44.636,416.648,34.404,427.112,34.404,440c0,13.232,10.768,24,24,24s24-10.768,24-24c0-7.872-3.856-14.808-9.728-19.184
			l18.744-60.92c4.248-0.184,8.192-1.448,11.592-3.568l44.808,35.856c-0.856,2.464-1.416,5.064-1.416,7.816
			c0,13.232,10.768,24,24,24s24-10.768,24-24c0-2.368-0.448-4.608-1.088-6.768l51.52-37.472c3.856,2.664,8.528,4.24,13.568,4.24
			c13.232,0,24-10.768,24-24S271.636,312,258.404,312z M58.404,448c-4.408,0-8-3.584-8-8c0-4.416,3.592-8,8-8s8,3.584,8,8
			C66.404,444.416,62.812,448,58.404,448z M90.404,344c-4.408,0-8-3.584-8-8c0-4.416,3.592-8,8-8s8,3.584,8,8
			C98.404,340.416,94.812,344,90.404,344z M170.404,408c-4.408,0-8-3.584-8-8c0-4.416,3.592-8,8-8s8,3.584,8,8
			C178.404,404.416,174.812,408,170.404,408z M258.404,344c-4.408,0-8-3.584-8-8c0-4.416,3.592-8,8-8c4.408,0,8,3.584,8,8
			C266.404,340.416,262.812,344,258.404,344z"/>
	</g>
</g>
<g>
	<g>
		<rect x="34.404" y="272" width="16" height="16"/>
	</g>
</g>
<g>
	<g>
		<rect x="66.404" y="272" width="16" height="16"/>
	</g>
</g>
<g>
</g>
<g>
</g>
<g>
</g>
<g>
</g>
<g>
</g>
<g>
</g>
<g>
</g>
<g>
</g>
<g>
</g>
<g>
</g>
<g>
</g>
<g>
</g>
<g>
</g>
<g>
</g>
<g>
</g>
</svg>
