<svg height="496pt" viewBox="0 0 496 496" width="496pt" xmlns="http://www.w3.org/2000/svg"><path d="m456 128h-58.089844c-11.558594-72.425781-74.285156-128-149.910156-128s-138.351562 55.574219-149.910156 128h-58.089844c-22.054688 0-40 17.945312-40 40v240c0 22.054688 17.945312 40 40 40h104v32h-32v16h272v-16h-32v-32h104c22.054688 0 40-17.945312 40-40v-240c0-22.054688-17.945312-40-40-40zm-72 24c0 21.617188-5.160156 42.480469-14.59375 61.175781-5.628906-2.359375-9.40625-7.75-9.40625-13.929687 0-17.230469-14.015625-31.246094-31.246094-31.246094-9.242187 0-16.753906-7.511719-16.753906-16.753906v-3.527344c0-9.6875-3.777344-18.808594-10.632812-25.65625l-8-8c-8.625-8.628906-13.367188-20.085938-13.367188-32.277344 0-13.945312 6.238281-26.9375 17.128906-35.640625l16.488282-13.191406c41.917968 23.191406 70.382812 67.839844 70.382812 119.046875zm-136-136c17.441406 0 34.070312 3.414062 49.40625 9.433594l-10.269531 8.214844c-14.703125 11.757812-23.136719 29.304687-23.136719 48.136718 0 16.460938 6.40625 31.941406 18.054688 43.582032l8 8c3.832031 3.832031 5.945312 8.929687 5.945312 14.34375v3.527343c0 18.066407 14.695312 32.761719 32.753906 32.761719 8.40625 0 15.246094 6.839844 15.246094 15.246094 0 11.96875 6.800781 22.675781 17.28125 27.90625-7.527344 11.328125-16.777344 21.558594-27.554688 30.320312l-17.367187-5.785156 9.265625-18.519531-30.785156-30.785157-18.519532 9.265626-6.550781-19.648438h-43.53125l-6.542969 19.648438-18.519531-9.265626-30.785156 30.785157 9.265625 18.519531-17.367188 5.785156c-12.617187-10.257812-23.160156-22.527344-31.273437-36.214844 8.503906-15.304687 12.984375-32.457031 12.984375-50.097656v-13.824218c0-7.351563 5.984375-13.335938 13.335938-13.335938 4.175781 0 8.167968 1.992188 10.664062 5.335938l8 10.664062c7.511719 10.015625 19.480469 16 32 16 22.054688 0 40-17.945312 40-40v-10.664062c0-16.175782-13.160156-29.335938-29.335938-29.335938-4.175781 0-8.167968-1.992188-10.664062-5.335938-12.527344-16.695312-32.464844-26.664062-53.335938-26.664062h-10.175781c24.96875-29.320312 62.070313-48 103.511719-48zm58.152344 307.671875-14.472656 14.472656-17.296876-8.648437-3.460937 1.550781c-.992187.449219-2 .839844-3.011719 1.234375l-3.550781 1.34375-6.128906 18.375h-20.46875l-6.128907-18.367188-3.554687-1.34375c-1.015625-.386718-2.023437-.785156-3.007813-1.234374l-3.460937-1.550782-17.296875 8.648438-14.472656-14.472656 8.648437-17.296876-1.550781-3.460937c-.449219-.992187-.839844-2-1.234375-3.011719l-1.34375-3.550781-18.359375-6.128906v-20.46875l18.367188-6.128907 1.34375-3.554687c.386718-1.015625.785156-2.023437 1.234374-3.007813l1.550782-3.460937-8.648438-17.296875 14.472656-14.472656 17.296876 8.648437 3.460937-1.550781c.992187-.449219 2-.839844 3.011719-1.234375l3.550781-1.34375 6.128906-18.359375h20.46875l6.128907 18.367188 3.554687 1.34375c1.015625.386718 2.023437.785156 3.007813 1.234374l3.460937 1.550782 17.296875-8.648438 14.472656 14.472656-8.648437 17.296876 1.550781 3.460937c.449219.992187.839844 2 1.234375 3.011719l1.34375 3.550781 18.359375 6.128906v20.46875l-18.367188 6.128907-1.34375 3.554687c-.386718 1.015625-.785156 2.023437-1.234374 3.007813l-1.550782 3.460937zm-173.320313-243.671875h21.832031c15.855469 0 31.007813 7.574219 40.527344 20.265625 5.511719 7.351563 14.289063 11.734375 23.472656 11.734375 7.351563 0 13.335938 5.984375 13.335938 13.335938v10.664062c0 13.230469-10.769531 24-24 24-7.511719 0-14.695312-3.59375-19.199219-9.601562l-8-10.664063c-5.503906-7.351563-14.28125-11.734375-23.464843-11.734375-16.175782 0-29.335938 13.160156-29.335938 29.335938v13.824218c0 11-2.070312 21.769532-6.03125 31.855469-6.472656-15.976563-9.96875-33.246094-9.96875-51.015625 0-26.457031 7.710938-51.089844 20.832031-72zm-92.832031 64h56.40625c-.140625 2.664062-.40625 5.296875-.40625 8 0 49.34375 23.871094 95.28125 64 123.832031v25.9375l19.648438 6.542969-9.265626 18.519531 30.785157 30.785157 18.519531-9.265626 6.542969 19.648438h43.53125l6.542969-19.648438 18.519531 9.265626 30.785156-30.785157-9.265625-18.519531 19.65625-6.542969v-25.9375c40.128906-28.550781 64-74.480469 64-123.832031 0-2.703125-.265625-5.335938-.40625-8h56.40625c13.230469 0 24 10.769531 24 24v216h-464v-216c0-13.230469 10.769531-24 24-24zm296 336h-176v-32h176zm120-48h-416c-13.230469 0-24-10.769531-24-24v-8h464v8c0 13.230469-10.769531 24-24 24zm0 0"/><path d="m248 240c-22.054688 0-40 17.945312-40 40s17.945312 40 40 40 40-17.945312 40-40-17.945312-40-40-40zm0 64c-13.230469 0-24-10.769531-24-24s10.769531-24 24-24 24 10.769531 24 24-10.769531 24-24 24zm0 0"/><path d="m90.34375 314.34375 11.3125 11.3125 37.65625-37.65625-37.65625-37.65625-11.3125 11.3125 18.34375 18.34375h-76.6875v16h76.6875zm0 0"/><path d="m405.65625 314.34375-18.34375-18.34375h76.6875v-16h-76.6875l18.34375-18.34375-11.3125-11.3125-37.65625 37.65625 37.65625 37.65625zm0 0"/></svg>