<svg height="480pt" viewBox="0 0 480 480.00193" width="480pt" xmlns="http://www.w3.org/2000/svg"><path d="m322.472656 344.394531-42.472656-13.777343c-26.3125-7.160157-54.066406-7.125-80.359375.105468l-42.113281 13.671875c-4.003906 1.503907-6.117188 5.894531-4.792969 9.960938 1.324219 4.070312 5.613281 6.378906 9.738281 5.238281l41.746094-13.601562c23.300781-6.363282 47.878906-6.398438 71.199219-.101563l42.101562 13.664063c.800781.277343 1.636719.429687 2.480469.445312 3.933594 0 7.285156-2.859375 7.902344-6.746094.613281-3.886718-1.6875-7.644531-5.429688-8.859375zm0 0"/><path d="m322.472656 376.394531-42.472656-13.777343c-26.3125-7.160157-54.066406-7.125-80.359375.105468l-42.113281 13.671875c-4.003906 1.503907-6.117188 5.894531-4.792969 9.960938 1.324219 4.070312 5.613281 6.378906 9.738281 5.238281l41.746094-13.601562c23.300781-6.363282 47.878906-6.398438 71.199219-.101563l42.101562 13.664063c.800781.277343 1.636719.429687 2.480469.445312 3.933594 0 7.285156-2.859375 7.902344-6.746094.613281-3.886718-1.6875-7.644531-5.429688-8.859375zm0 0"/><path d="m120 64c-4.417969 0-8 3.582031-8 8v8c0 4.421875 3.582031 8 8 8s8-3.578125 8-8v-8c0-4.417969-3.582031-8-8-8zm0 0"/><path d="m120 104c-4.417969 0-8 3.582031-8 8v8c0 4.421875 3.582031 8 8 8s8-3.578125 8-8v-8c0-4.417969-3.582031-8-8-8zm0 0"/><path d="m120 144c-4.417969 0-8 3.582031-8 8v8c0 4.421875 3.582031 8 8 8s8-3.578125 8-8v-8c0-4.417969-3.582031-8-8-8zm0 0"/><path d="m120 184c-4.417969 0-8 3.582031-8 8v8c0 4.421875 3.582031 8 8 8s8-3.578125 8-8v-8c0-4.417969-3.582031-8-8-8zm0 0"/><path d="m120 224c-4.417969 0-8 3.582031-8 8v8c0 4.421875 3.582031 8 8 8s8-3.578125 8-8v-8c0-4.417969-3.582031-8-8-8zm0 0"/><path d="m120 264c-4.417969 0-8 3.582031-8 8v8c0 4.421875 3.582031 8 8 8s8-3.578125 8-8v-8c0-4.417969-3.582031-8-8-8zm0 0"/><path d="m120 304c-4.417969 0-8 3.582031-8 8v8c0 4.421875 3.582031 8 8 8s8-3.578125 8-8v-8c0-4.417969-3.582031-8-8-8zm0 0"/><path d="m120 344c-4.417969 0-8 3.582031-8 8v8c0 4.421875 3.582031 8 8 8s8-3.578125 8-8v-8c0-4.417969-3.582031-8-8-8zm0 0"/><path d="m120 384c-4.417969 0-8 3.582031-8 8v8c0 4.421875 3.582031 8 8 8s8-3.578125 8-8v-8c0-4.417969-3.582031-8-8-8zm0 0"/><path d="m120 424c-4.417969 0-8 3.582031-8 8v8c0 4.421875 3.582031 8 8 8s8-3.578125 8-8v-8c0-4.417969-3.582031-8-8-8zm0 0"/><path d="m352 72v8c0 4.421875 3.582031 8 8 8s8-3.578125 8-8v-8c0-4.417969-3.582031-8-8-8s-8 3.582031-8 8zm0 0"/><path d="m360 104c-4.417969 0-8 3.582031-8 8v8c0 4.421875 3.582031 8 8 8s8-3.578125 8-8v-8c0-4.417969-3.582031-8-8-8zm0 0"/><path d="m360 144c-4.417969 0-8 3.582031-8 8v8c0 4.421875 3.582031 8 8 8s8-3.578125 8-8v-8c0-4.417969-3.582031-8-8-8zm0 0"/><path d="m360 184c-4.417969 0-8 3.582031-8 8v8c0 4.421875 3.582031 8 8 8s8-3.578125 8-8v-8c0-4.417969-3.582031-8-8-8zm0 0"/><path d="m360 224c-4.417969 0-8 3.582031-8 8v8c0 4.421875 3.582031 8 8 8s8-3.578125 8-8v-8c0-4.417969-3.582031-8-8-8zm0 0"/><path d="m360 264c-4.417969 0-8 3.582031-8 8v8c0 4.421875 3.582031 8 8 8s8-3.578125 8-8v-8c0-4.417969-3.582031-8-8-8zm0 0"/><path d="m360 304c-4.417969 0-8 3.582031-8 8v8c0 4.421875 3.582031 8 8 8s8-3.578125 8-8v-8c0-4.417969-3.582031-8-8-8zm0 0"/><path d="m360 344c-4.417969 0-8 3.582031-8 8v8c0 4.421875 3.582031 8 8 8s8-3.578125 8-8v-8c0-4.417969-3.582031-8-8-8zm0 0"/><path d="m360 384c-4.417969 0-8 3.582031-8 8v8c0 4.421875 3.582031 8 8 8s8-3.578125 8-8v-8c0-4.417969-3.582031-8-8-8zm0 0"/><path d="m360 424c-4.417969 0-8 3.582031-8 8v8c0 4.421875 3.582031 8 8 8s8-3.578125 8-8v-8c0-4.417969-3.582031-8-8-8zm0 0"/><path d="m476.609375 1.464844c-2.125-1.5000002-4.847656-1.871094-7.296875-1l-109.398438 39.074218-117.386718-39.128906c-1.640625-.546875-3.414063-.546875-5.054688 0l-117.382812 39.128906-109.402344-39.074218c-2.449219-.871094-5.171875-.5000002-7.296875.996094-2.125 1.5-3.390625 3.941406-3.390625 6.539062v424c0 3.382812 2.128906 6.402344 5.3125 7.539062l112 40c.785156.132813 1.570312.269532 2.351562.40625.113282 0 .226563.054688.335938.054688.839844 0 1.675781-.136719 2.472656-.398438h.054688l117.472656-39.167968 117.472656 39.160156h.0625c1.636719.546875 3.40625.53125 5.035156-.039062h.117188l112-40c3.191406-1.140626 5.320312-4.164063 5.3125-7.554688v-424c0-2.597656-1.265625-5.035156-3.390625-6.535156zm-12.609375 424.9375-104.085938 37.136718-117.386718-39.128906c-1.640625-.546875-3.414063-.546875-5.054688 0l-117.382812 39.128906-104.089844-37.136718v-407.046875l101.3125 36.183593c.320312.0625.644531.109376.96875.136719.539062.140625 1.089844.21875 1.648438.238281.539062-.007812 1.074218-.074218 1.597656-.199218.332031-.015625.660156-.058594.984375-.121094l117.488281-39.160156 117.472656 39.160156c.46875.125.949219.203125 1.433594.230469.277344.0625.554688.109375.839844.136719.085937.039062.167968.039062.253906.039062.882812-.003906 1.753906-.15625 2.585938-.445312h.101562l101.3125-36.199219zm0 0"/><path d="m272 144c0-17.671875-14.324219-32-32-32-17.671875 0-32 14.328125-32 32 0 17.675781 14.328125 32 32 32 17.675781 0 32-14.324219 32-32zm-48 0c0-8.835938 7.164062-16 16-16s16 7.164062 16 16c0 8.839844-7.164062 16-16 16s-16-7.160156-16-16zm0 0"/><path d="m272.800781 241.664062c23.199219-32.734374 47.199219-72.679687 47.199219-97.664062 0-44.179688-35.816406-80-80-80s-80 35.820312-80 80c0 24.992188 24 64.945312 47.199219 97.664062-24.460938 2.617188-63.199219 9.96875-63.199219 30.335938 0 25.265625 60.34375 32 96 32s96-6.734375 96-32c0-20.367188-38.734375-27.71875-63.199219-30.335938zm-32.800781-161.664062c35.332031.042969 63.960938 28.671875 64 64 0 18.195312-19.109375 54.546875-52.453125 99.753906-4.480469 6.121094-8.480469 11.375-11.546875 15.328125-2.296875-2.96875-5.117188-6.664062-8.285156-10.921875-1.070313-1.40625-2.152344-2.875-3.257813-4.40625-33.34375-45.207031-52.457031-81.558594-52.457031-99.753906.039062-35.328125 28.671875-63.957031 64-64zm0 208c-48.390625 0-77.832031-10.628906-80.046875-15.671875 1.601563-4.117187 20.800781-12.933594 58.199219-15.589844l.234375.3125 2.460937 3.296875.945313 1.253906c.703125.9375 1.367187 1.816407 2.023437 2.671876.375.496093.738282.960937 1.089844 1.433593l1.597656 2.09375 1.128906 1.464844 1.257813 1.601563 1.085937 1.390624.855469 1.082032 1.136719 1.4375.34375.433594 1.464844 1.824218c1.519531 1.867188 3.800781 2.953125 6.207031 2.953125 2.410156 0 4.691406-1.085937 6.207031-2.953125l1.472656-1.832031.3125-.402344c.34375-.421875.703126-.878906 1.136719-1.429687l.925781-1.183594 1.035157-1.3125 1.246093-1.601562 1.160157-1.503907c.503906-.648437 1.015625-1.320312 1.550781-2.023437l1.195312-1.601563 1.878907-2.480469 1.183593-1.597656c.71875-.945312 1.433594-1.90625 2.183594-2.921875l.359375-.480469c36.441407 2.585938 55.625 11.035157 58.039063 15.265626-3.167969 5.839843-32.398438 16.070312-79.871094 16.070312zm0 0"/></svg>